<svg width="377" height="359" viewBox="0 0 377 359" fill="none" xmlns="http://www.w3.org/2000/svg">
<rect width="377" height="359" rx="80" fill="#F2F2F2"/>
<path fill-rule="evenodd" clip-rule="evenodd" d="M156.75 56.6081C176.087 45.4436 199.913 45.4436 219.25 56.6081L277.503 90.2409C296.84 101.405 308.753 122.038 308.753 144.367V211.632C308.753 233.961 296.84 254.594 277.503 265.758L219.25 299.391C199.912 310.556 176.088 310.556 156.75 299.391L98.4971 265.758C79.1597 254.594 67.2472 233.961 67.2471 211.632V144.367C67.2473 122.038 79.1597 101.405 98.4971 90.2409L156.75 56.6081ZM261.122 161.596V198.566C261.122 211.963 253.974 224.343 242.372 231.042L206.75 251.608C206.011 252.035 205.26 252.434 204.5 252.806V278.939C205.26 278.567 206.011 278.168 206.75 277.741L265.003 244.108C276.605 237.409 283.753 225.03 283.753 211.632V150.168L261.122 161.596ZM92.2471 211.632C92.2472 225.03 99.3947 237.409 110.997 244.108L169.25 277.741C169.989 278.168 170.74 278.567 171.5 278.939V252.806C170.74 252.434 169.989 252.035 169.25 251.608L133.628 231.042C122.026 224.343 114.878 211.963 114.878 198.566V161.596L92.2471 150.168V211.632ZM139.878 198.566C139.878 203.032 142.261 207.158 146.128 209.391L171.5 224.04V213.264C171.5 199.114 163.535 186.168 150.904 179.79L139.878 174.221V198.566ZM225.096 179.79C212.465 186.168 204.5 199.114 204.5 213.264V224.039L229.872 209.391C233.739 207.158 236.122 203.032 236.122 198.566V174.221L225.096 179.79ZM194.25 126.042C190.383 123.809 185.617 123.809 181.75 126.042L146.128 146.608C145.318 147.076 144.574 147.627 143.902 148.247L162.174 157.474C173.163 163.024 182.031 171.557 188 181.8C193.969 171.557 202.837 163.024 213.826 157.474L232.097 148.247C231.425 147.627 230.682 147.076 229.872 146.608L194.25 126.042ZM206.75 78.2584C195.148 71.5599 180.852 71.5599 169.25 78.2584L110.997 111.891C105.441 115.099 100.908 119.61 97.6904 124.911L121.107 136.736C124.26 131.972 128.511 127.912 133.628 124.958L169.25 104.391C180.852 97.6926 195.148 97.6926 206.75 104.391L242.372 124.958C247.489 127.912 251.739 131.972 254.892 136.736L278.309 124.911C275.091 119.61 270.559 115.099 265.003 111.891L206.75 78.2584Z" fill="#2D2D2D"/>
</svg>
